#!OML:ASF F:\VICON\USERDATA\INSTALL\rory3\rory3.ASF
:FULLY-SPECIFIED
:DEGREES
3085
root 10.1009 18.3334 5.21984 -181.956 199.648 -535.363
lowerback 9.24862 2.63789 -1.45778
upperback 2.06418 3.30132 -1.38257
thorax -3.03512 1.64207 -0.998047
lowerneck -14.4809 6.54932 -8.67929
upperneck 45.9889 12.3277 3.01159
head 19.4748 3.64507 5.36287
rclavicle 3.15074e-014 1.43125e-014
rhumerus -33.5583 -11.6683 -80.0839
rradius 37.654
rwrist 3.29543
rhand -14.2289 4.90331
rfingers 7.12502
rthumb 11.9084 -24.738
lclavicle 3.15074e-014 1.43125e-014
lhumerus -28.7166 7.46536 73.4219
lradius 28.6868
lwrist -6.9546
lhand -18.7766 27.5119
lfingers 7.12502
lthumb 7.52083 57.3582
rfemur -3.11246 -2.61302 20.7952
rtibia 47.7138
rfoot -3.57323 13.7888
rtoes -11.2161
lfemur -13.3116 -4.23085 -21.8104
ltibia 23.805
lfoot 3.08386 -20.5773
ltoes -6.02872
3086
root 10.143 18.3143 5.13762 -181.798 199.214 -535.425
lowerback 9.16626 2.73255 -1.22611
upperback 2.03463 3.44931 -1.44437
thorax -3.00204 1.71438 -1.20498
lowerneck -14.4386 6.52205 -8.63119
upperneck 45.9795 12.306 2.96431
head 19.4709 3.64602 5.32782
rclavicle 6.22196e-014 -8.34896e-015
rhumerus -33.1929 -11.5387 -80.1156
rradius 37.6784
rwrist 3.35631
rhand -14.3632 4.77207
rfingers 7.12502
rthumb 11.7788 -24.8767
lclavicle 6.22196e-014 -8.34896e-015
lhumerus -28.8354 7.97069 72.9003
lradius 28.5502
lwrist -6.5885
lhand -19.5745 26.941
lfingers 7.12502
lthumb 6.75056 56.8134
rfemur -2.2546 -2.15456 21.255
rtibia 46.117
rfoot -3.44982 13.4654
rtoes -10.2578
lfemur -13.9107 -4.26758 -21.8373
ltibia 24.0325
lfoot 2.8017 -20.8688
ltoes -6.86364
3087
root 10.1832 18.2933 5.05172 -181.651 198.763 -535.514
lowerback 9.19546 2.83772 -0.98595
upperback 1.97734 3.60972 -1.48214
thorax -3.05875 1.79249 -1.40009
lowerneck -14.3201 6.50147 -8.56284
upperneck 45.8879 12.3387 2.76524
head 19.4103 3.6605 5.21364
rclavicle 1.11071e-014 -1.41137e-014
rhumerus -32.8336 -11.2546 -80.1841
rradius 37.731
rwrist 2.99957
rhand -14.8917 4.62041
rfingers 7.12502
rthumb 11.2692 -25.0569
lclavicle 1.11071e-014 -1.41137e-014
lhumerus -28.9891 8.82612 72.302
lradius 28.4525
lwrist -6.75613
lhand -20.3172 26.4665
lfingers 7.12502
lthumb 6.03362 56.3606
rfemur -1.40197 -1.70898 21.7486
rtibia 44.4795
rfoot -3.2124 12.9772
rtoes -9.07346
lfemur -14.499 -4.46799 -21.7943
ltibia 24.2567
lfoot 2.7302 -21.0186
ltoes -6.80327
3088
root 10.222 18.2713 4.95877 -181.477 198.255 -535.634
lowerback 9.17084 2.9342 -0.742279
upperback 1.96946 3.76154 -1.49927
thorax -3.0342 1.86655 -1.56994
lowerneck -14.3312 6.4078 -8.58479
upperneck 45.8003 12.2713 2.64258
head 19.3803 3.62615 5.14483
rclavicle 1.19022e-014 -7.95139e-016
rhumerus -32.399 -11.0983 -80.1891
rradius 37.7994
rwrist 2.91906
rhand -14.8736 4.73165
rfingers 7.12502
rthumb 11.2867 -24.9447
lclavicle 1.19022e-014 -7.95139e-016
lhumerus -29.0506 10.0574 71.6538
lradius 28.3757
lwrist -7.50178
lhand -20.0518 26.7628
lfingers 7.12502
lthumb 6.28979 56.6494
rfemur -0.655644 -1.21518 22.3328
rtibia 42.816
rfoot -2.66388 12.2535
rtoes -6.98681
lfemur -15.1748 -4.71065 -21.692
ltibia 24.4864
lfoot 2.93827 -21.1441
ltoes -5.8115
3089
root 10.2638 18.2466 4.86471 -181.304 197.747 -535.778
lowerback 9.115 3.00121 -0.465212
upperback 2.03239 3.87972 -1.47874
thorax -2.91879 1.92444 -1.71075
lowerneck -14.5706 6.30016 -8.75852
upperneck 45.8128 12.2159 2.66216
head 19.4477 3.57418 5.19589
rclavicle 1.75924e-014 -5.76476e-015
rhumerus -31.8218 -10.9285 -80.1146
rradius 37.801
rwrist 3.09266
rhand -14.7524 4.9321
rfingers 7.12502
rthumb 11.4036 -24.7378
lclavicle 1.75924e-014 -5.76476e-015
lhumerus -28.9532 10.8787 71.2898
lradius 28.17
lwrist -7.25953
lhand -19.9503 27.6641
lfingers 7.12502
lthumb 6.38777 57.5478
rfemur 0.0610789 -0.903741 22.8691
rtibia 41.1152
rfoot -2.10512 11.6737
rtoes -4.55414
lfemur -15.867 -4.8946 -21.5937
ltibia 24.7313
lfoot 3.12922 -21.317
ltoes -4.8011
